<svg xmlns="http://www.w3.org/2000/svg" width="19.423" height="19.423" viewBox="0 0 19.423 19.423">
  <g id="Logout" transform="translate(-18 -4)">
    <path id="Path_7" data-name="Path 7" d="M7.549,2a.694.694,0,0,0,0,1.387Zm10.4.694v0Zm2.775,2.775h0Zm0,12.486h0Zm-2.775,2.775v0Zm-10.4-.694a.694.694,0,0,0,0,1.387Zm9.018-7.63a.694.694,0,0,0,0-1.387ZM4.081,11.018a.694.694,0,0,0,0,1.387ZM7.346,8.04a.694.694,0,0,0-.981-.981ZM2.694,11.711l-.49-.49a.694.694,0,0,0,0,.981Zm3.671,4.652a.694.694,0,0,0,.981-.981ZM7.549,3.387h10.4V2H7.549ZM20.035,5.468V17.954h1.387V5.468ZM17.954,20.035H7.549v1.387h10.4Zm2.081-2.081a2.081,2.081,0,0,1-2.081,2.081v1.387a3.468,3.468,0,0,0,3.468-3.468ZM17.954,3.387a2.081,2.081,0,0,1,2.081,2.081h1.387A3.468,3.468,0,0,0,17.954,2Zm-1.387,7.63H4.081V12.4H16.567ZM6.365,7.059,2.2,11.221l.981.981L7.346,8.04ZM2.2,12.2l4.162,4.162.981-.981L3.184,11.221Z" transform="translate(16 2)" fill="#e0b64a"/>
  </g>
</svg>
