<svg xmlns="http://www.w3.org/2000/svg" width="19" height="19" viewBox="0 0 19 19">
  <g id="Settings" transform="translate(283 504)">
    <path id="Path_3" data-name="Path 3" d="M14.859,5.262l.48.48h0Zm2.879,2.879.48.48h0Zm0,6.718.48-.48h0Zm0,2.879-.48-.48h0Zm-2.879,0,.48-.48h0Zm-6.718,0-.48-.48h0ZM5.262,14.859l-.48-.48h0Zm0-6.718-.48.48h0ZM9.17,5.125l-.233-.637Zm-.53.22.286.615Zm-3.3,3.3-.615-.286Zm-.22.53-.637-.233Zm0,4.66-.637.233Zm.22.53.615-.286ZM9.17,17.875l.233-.637Zm5.19-.22-.286-.615ZM17.875,9.17l-.637.233ZM14.36,5.345l-.286.615ZM8.64,17.655l-.286.615Zm9.235-3.826.637.233ZM13.83,17.875l-.233-.637ZM17.655,8.64l.615-.286Zm0,5.72-.615-.286ZM13.83,5.125l.233-.637Zm.384-.411A2.714,2.714,0,0,0,11.5,2V3.357a1.357,1.357,0,0,1,1.357,1.357ZM13.6,5.762q.243.089.477.2l.573-1.23q-.285-.133-.583-.242Zm4.621-.98a2.714,2.714,0,0,0-3.839,0l.96.96a1.357,1.357,0,0,1,1.919,0Zm0,3.839a2.714,2.714,0,0,0,0-3.839l-.96.96a1.357,1.357,0,0,1,0,1.919Zm-1.177.305q.109.233.2.477l1.275-.466q-.109-.3-.242-.583ZM21,11.5a2.714,2.714,0,0,0-2.714-2.714v1.357A1.357,1.357,0,0,1,19.643,11.5Zm-2.714,2.714A2.714,2.714,0,0,0,21,11.5H19.643a1.357,1.357,0,0,1-1.357,1.357ZM17.238,13.6q-.089.243-.2.477l1.23.573q.133-.285.242-.583Zm.98,4.621a2.714,2.714,0,0,0,0-3.839l-.96.96a1.357,1.357,0,0,1,0,1.919Zm-3.839,0a2.714,2.714,0,0,0,3.839,0l-.96-.96a1.357,1.357,0,0,1-1.919,0Zm-.305-1.177q-.233.109-.477.2l.466,1.275q.3-.109.583-.242ZM11.5,21a2.714,2.714,0,0,0,2.714-2.714H12.857A1.357,1.357,0,0,1,11.5,19.643ZM8.786,18.286A2.714,2.714,0,0,0,11.5,21V19.643a1.357,1.357,0,0,1-1.357-1.357ZM9.4,17.238q-.243-.089-.477-.2l-.573,1.23q.285.133.583.242Zm-4.621.98a2.714,2.714,0,0,0,3.839,0l-.96-.96a1.357,1.357,0,0,1-1.919,0Zm0-3.839a2.714,2.714,0,0,0,0,3.839l.96-.96a1.357,1.357,0,0,1,0-1.919Zm1.177-.305q-.109-.233-.2-.477l-1.275.466q.109.3.242.583ZM2,11.5a2.714,2.714,0,0,0,2.714,2.714V12.857A1.357,1.357,0,0,1,3.357,11.5ZM4.714,8.786A2.714,2.714,0,0,0,2,11.5H3.357a1.357,1.357,0,0,1,1.357-1.357ZM5.762,9.4q.089-.243.2-.477l-1.23-.573q-.133.285-.242.583Zm-.98-4.621a2.714,2.714,0,0,0,0,3.839l.96-.96a1.357,1.357,0,0,1,0-1.919Zm3.839,0a2.714,2.714,0,0,0-3.839,0l.96.96a1.357,1.357,0,0,1,1.919,0ZM8.926,5.96q.233-.109.477-.2L8.937,4.488q-.3.109-.583.242ZM11.5,2A2.714,2.714,0,0,0,8.786,4.714h1.357A1.357,1.357,0,0,1,11.5,3.357ZM9.4,5.762a1.12,1.12,0,0,0,.74-1.048H8.786a.238.238,0,0,1,.151-.227Zm-1.742-.02a1.12,1.12,0,0,0,1.265.218l-.573-1.23a.238.238,0,0,1,.267.053ZM5.96,8.926a1.12,1.12,0,0,0-.218-1.265l-.96.96a.238.238,0,0,1-.053-.267ZM4.714,10.143A1.12,1.12,0,0,0,5.762,9.4L4.487,8.937a.238.238,0,0,1,.227-.151ZM5.762,13.6a1.12,1.12,0,0,0-1.048-.74v1.357a.238.238,0,0,1-.227-.151Zm-.02,1.742a1.12,1.12,0,0,0,.218-1.265l-1.23.573a.238.238,0,0,1,.053-.267Zm4.4,2.947a1.12,1.12,0,0,0-.74-1.048l-.466,1.275a.238.238,0,0,1-.151-.227Zm5.2-1.028a1.12,1.12,0,0,0-1.265-.218l.573,1.23a.238.238,0,0,1-.267-.053Zm1.9-7.855a1.12,1.12,0,0,0,1.048.74V8.786a.238.238,0,0,1,.227.151ZM14.074,5.96a1.12,1.12,0,0,0,1.265-.218l-.96-.96a.238.238,0,0,1,.267-.053ZM8.926,17.04a1.12,1.12,0,0,0-1.265.218l.96.96a.238.238,0,0,1-.267.053Zm9.359-4.183a1.12,1.12,0,0,0-1.048.74l1.275.466a.238.238,0,0,1-.227.151ZM13.6,17.238a1.12,1.12,0,0,0-.74,1.048h1.357a.238.238,0,0,1-.151.227Zm3.661-9.576a1.12,1.12,0,0,0-.218,1.265l1.23-.573a.238.238,0,0,1-.053.267Zm-.218,6.412a1.12,1.12,0,0,0,.218,1.265l.96-.96a.238.238,0,0,1,.053.267ZM12.857,4.714a1.12,1.12,0,0,0,.74,1.048l.466-1.275a.238.238,0,0,1,.151.227ZM14.214,11.5A2.714,2.714,0,0,1,11.5,14.214v1.357A4.071,4.071,0,0,0,15.571,11.5ZM11.5,14.214A2.714,2.714,0,0,1,8.786,11.5H7.429A4.071,4.071,0,0,0,11.5,15.571ZM8.786,11.5A2.714,2.714,0,0,1,11.5,8.786V7.429A4.071,4.071,0,0,0,7.429,11.5ZM11.5,8.786A2.714,2.714,0,0,1,14.214,11.5h1.357A4.071,4.071,0,0,0,11.5,7.429Z" transform="translate(-285 -506)" fill="#e0b64a"/>
  </g>
</svg>
