<svg xmlns="http://www.w3.org/2000/svg" width="10.594" height="10.251" viewBox="0 0 10.594 10.251">
  <g id="Key" transform="translate(-44 96)">
    <path id="Path_12" data-name="Path 12" d="M10.434,5.9a.366.366,0,1,0,.521-.514ZM9.743,4.151a.366.366,0,1,0-.521.514Zm2.225.211a.366.366,0,1,0,.521-.514Zm-.692-1.745a.366.366,0,1,0-.521.514Zm.5.007a.366.366,0,0,0-.518-.517ZM6.921,6.456a.366.366,0,0,0,.518.517Zm4.035-1.075L9.743,4.151l-.521.514L10.434,5.9Zm1.533-1.533-1.213-1.23-.521.514,1.213,1.23ZM7.858,8.956A2.563,2.563,0,0,1,5.3,11.519v.732a3.3,3.3,0,0,0,3.3-3.3ZM5.3,11.519A2.563,2.563,0,0,1,2.732,8.956H2a3.3,3.3,0,0,0,3.3,3.3ZM2.732,8.956A2.563,2.563,0,0,1,5.3,6.393V5.661A3.3,3.3,0,0,0,2,8.956ZM5.3,6.393A2.563,2.563,0,0,1,7.858,8.956H8.59a3.3,3.3,0,0,0-3.3-3.3ZM11.26,2.108,6.921,6.456l.518.517,4.339-4.348Z" transform="translate(42 -98)" fill="#e0b64a"/>
  </g>
</svg>
